<?xml version="1.0" encoding="UTF-8"?>
<svg version="1.1" xmlns="http://www.w3.org/2000/svg" width="1300" height="1300">
<path d="M0 0 C429 0 858 0 1300 0 C1300 429 1300 858 1300 1300 C871 1300 442 1300 0 1300 C0 871 0 442 0 0 Z " fill="#FEFEFE" transform="translate(0,0)"/>
<path d="M0 0 C1.3797702 -0.0051059 1.3797702 -0.0051059 2.78741455 -0.01031494 C14.38997774 -0.03484686 25.58672619 0.56564732 37.0625 2.3125 C38.04968018 2.447771 39.03686035 2.58304199 40.05395508 2.72241211 C55.63533152 4.89165259 70.26653562 9.0245274 85.0625 14.3125 C85.94534668 14.62703125 86.82819336 14.9415625 87.73779297 15.265625 C107.37850915 22.3953447 126.12355738 32.06599834 143.0625 44.3125 C144.60744141 45.41851563 144.60744141 45.41851563 146.18359375 46.546875 C153.77695596 52.11599891 160.97269915 58.12295638 168.0625 64.3125 C168.5673291 64.75271484 169.0721582 65.19292969 169.59228516 65.64648438 C174.84623719 70.25467043 179.8417431 74.92051962 184.3359375 80.27734375 C186.25984649 82.54511883 188.28442454 84.70001448 190.3125 86.875 C204.50916314 102.68109873 216.16524729 121.24864548 225.17431641 140.44335938 C226.02890128 142.24179308 226.9257899 144.01993811 227.82421875 145.796875 C238.16282281 166.70641131 244.81905644 190.098763 247.0625 213.3125 C221.489817 208.71359788 196.89913802 202.10738141 172.3125 193.6875 C171.63926697 193.4577951 170.96603394 193.22809021 170.2723999 192.99142456 C161.73381647 190.06866706 153.34802165 186.89980686 145.0625 183.3125 C144.00708008 182.86084473 142.95166016 182.40918945 141.86425781 181.94384766 C116.05781315 170.8250733 91.23793502 158.31790094 68.0625 142.3125 C67.41152344 141.86567871 66.76054688 141.41885742 66.08984375 140.95849609 C52.61381051 131.66383121 39.94978354 121.56840768 28.0625 110.3125 C39.85888542 130.18860146 58.72018434 148.51061691 77.0625 162.3125 C78.2700626 163.24801245 79.47705061 164.18426685 80.68359375 165.12109375 C129.8945822 203.00995569 187.99855313 223.48951209 249.0625 232.3125 C244.34435317 236.21805409 238.96905257 237.49325272 233.1875 239.25 C232.03088867 239.60336426 230.87427734 239.95672852 229.68261719 240.32080078 C219.67074942 243.29200284 209.65934177 245.3856639 199.34277344 246.95410156 C197.41146299 247.25765228 195.48932313 247.61868879 193.5703125 247.9921875 C152.92633538 255.39121575 108.67854651 245.07703481 72.0625 227.3125 C71.28664551 226.93754395 70.51079102 226.56258789 69.71142578 226.17626953 C57.67684733 220.28533724 46.74758264 213.38482831 36.0625 205.3125 C34.64710938 204.24708984 34.64710938 204.24708984 33.203125 203.16015625 C26.48406245 197.92827474 20.23618049 192.16837425 14.0625 186.3125 C13.55928223 185.83796387 13.05606445 185.36342773 12.53759766 184.87451172 C4.54445834 177.28758533 -2.38953888 169.1700133 -8.9375 160.3125 C-9.68515625 159.30960938 -10.4328125 158.30671875 -11.203125 157.2734375 C-22.32912843 141.78508021 -31.10181411 125.08445574 -37.9375 107.3125 C-38.40671875 106.13816406 -38.8759375 104.96382812 -39.359375 103.75390625 C-47.96047684 81.21583382 -51.13596211 57.36161238 -51.06787109 33.37524414 C-51.06248313 31.11793381 -51.06786496 28.86082018 -51.07421875 26.60351562 C-51.07716978 19.44461474 -50.95088402 12.41423091 -49.9375 5.3125 C-35.17060364 -1.56277563 -15.90627426 0.0139335 0 0 Z " fill="#1B763B" transform="translate(476.9375,497.6875)"/>
<path d="M0 0 C2.66130122 -0.00216405 5.32217144 -0.02030493 7.98339844 -0.03930664 C23.70347367 -0.09059385 39.4228301 0.86418823 54.82714844 4.18530273 C55.56208458 9.49814762 56.00550347 14.70910879 56.06542969 20.07592773 C56.07526886 20.80989273 56.08510803 21.54385773 56.09524536 22.30006409 C56.38638829 49.75029646 53.47972426 74.97127858 44.82714844 101.18530273 C44.39997832 102.53162937 43.97288495 103.87798036 43.54589844 105.22436523 C40.76008929 113.56296963 37.0431504 121.31584926 32.94384766 129.0715332 C32.19374098 130.4913897 31.45066338 131.91498 30.71435547 133.34204102 C21.89533503 150.39113395 10.87589882 165.85948078 -2.58496094 179.56225586 C-4.29464398 181.30979167 -5.9752973 183.08293621 -7.65722656 184.85717773 C-20.31849046 198.0452907 -34.57771184 208.70301589 -50.17285156 218.18530273 C-50.74503418 218.53383301 -51.3172168 218.88236328 -51.90673828 219.24145508 C-61.71173593 225.18530273 -61.71173593 225.18530273 -64.17285156 225.18530273 C-64.26783936 224.48260254 -64.36282715 223.77990234 -64.46069336 223.0559082 C-68.23085871 195.53034492 -73.44430128 168.8636173 -85.21533203 143.51220703 C-87.34877198 138.7032629 -87.34877198 138.7032629 -86.48486328 136.15966797 C-84.97382834 133.885805 -83.53089894 132.74882106 -81.27050781 131.22436523 C-80.47209473 130.6776416 -79.67368164 130.13091797 -78.85107422 129.56762695 C-77.98788574 128.98770996 -77.12469727 128.40779297 -76.23535156 127.81030273 C-74.40987862 126.55691909 -72.58569116 125.30166148 -70.76269531 124.04467773 C-69.83183105 123.4046582 -68.9009668 122.76463867 -67.94189453 122.10522461 C-55.45600091 113.44810351 -43.50717406 104.301301 -32.17285156 94.18530273 C-31.15351927 93.28924302 -30.13399254 92.39340444 -29.11425781 91.49780273 C-15.97006808 79.79822544 -5.67734328 65.91991978 3.82714844 51.18530273 C1.52704714 53.4774999 -0.77138644 55.7685921 -3.02441406 58.10717773 C-22.88781533 78.5831068 -48.39557856 93.8055955 -72.5625 108.58178711 C-75.18322337 110.19167404 -77.79239271 111.81896183 -80.39941406 113.45092773 C-82.03218041 114.46662694 -83.66499087 115.48225521 -85.29785156 116.49780273 C-86.42610352 117.20948608 -86.42610352 117.20948608 -87.57714844 117.93554688 C-92.83337079 121.18530273 -92.83337079 121.18530273 -96.17285156 121.18530273 C-96.65753906 120.31389648 -97.14222656 119.44249023 -97.64160156 118.54467773 C-111.48291879 93.85994835 -128.9798073 72.88179673 -149.17285156 53.18530273 C-119.77817649 21.88737532 -68.10454482 7.2275613 -27.17285156 1.18530273 C-26.46064453 1.08000244 -25.7484375 0.97470215 -25.01464844 0.86621094 C-16.72107023 -0.15237809 -8.34217875 -0.00075536 0 0 Z " fill="#8BC43F" transform="translate(806.1728515625,497.814697265625)"/>
<path d="M0 0 C16.23066387 12.21593617 26.8002216 31.22800718 30.58203125 51.05078125 C33.01036379 73.99511951 31.48309449 94.8245794 18 114 C13.86412055 118.88158058 9.66928191 122.96322047 4 126 C3.34 126 2.68 126 2 126 C2.23726807 126.94182129 2.47453613 127.88364258 2.71899414 128.85400391 C4.57403854 136.23587939 6.40194021 143.62348738 8.18359375 151.0234375 C8.36806061 151.78819397 8.55252747 152.55295044 8.74258423 153.34088135 C9.49590836 156.46446813 10.24907039 159.58808244 10.99731445 162.71289062 C13.21591653 171.97078494 15.56942572 181.16785505 18.15716553 190.32962036 C20.38062896 198.25248161 22.29310582 206.24326058 24.1875 214.25 C24.70216751 216.42163991 25.21789255 218.59300205 25.7368927 220.76361084 C26.19987907 222.70017546 26.65903535 224.63765464 27.11791992 226.57519531 C27.95496447 229.99826189 27.95496447 229.99826189 29.1027832 233.26855469 C30.00796489 236.02424795 30.16924815 238.12278138 30 241 C25.25323276 239.25863474 21.03685369 236.83370314 16.73657227 234.18994141 C13.48075332 232.23585968 10.86895494 230.96504579 7.1484375 229.97265625 C2.87435672 228.70842815 -0.36965406 227.65908266 -3 224 C-5.92098815 215.65373405 -6.59716606 206.68660252 -7.52148438 197.9440918 C-8.08063546 193.33537459 -8.91538566 188.81339379 -9.80567932 184.25866699 C-11.30405398 176.5533042 -12.52090443 168.80648945 -13.73486328 161.05200195 C-14.12852703 158.53999369 -14.52693236 156.02876778 -14.92578125 153.51757812 C-15.18257122 151.88806486 -15.43909144 150.25850906 -15.6953125 148.62890625 C-15.81198273 147.89434708 -15.92865295 147.1597879 -16.04885864 146.40296936 C-16.84681627 141.28068427 -17.4553095 136.15549241 -18 131 C-18.65436035 131.0414917 -19.3087207 131.0829834 -19.98291016 131.12573242 C-33.79535804 131.86253141 -45.10209163 124.3769344 -55.25 115.6875 C-69.96011548 101.85906336 -79.50317554 80.10652094 -80.23828125 59.98046875 C-80.6377364 39.36572964 -77.83856641 19.28285838 -62.90234375 3.703125 C-43.75737644 -13.43692787 -21.254951 -13.71203546 0 0 Z " fill="#F6931F" transform="translate(603,285)"/>
<path d="M0 0 C2.3203125 0.375 2.3203125 0.375 3.3203125 1.375 C3.58079152 6.44552465 2.9372804 11.03864615 1.78125 15.94921875 C1.61972443 16.66317307 1.45819885 17.37712738 1.29177856 18.11271667 C0.94540813 19.64007355 0.59569976 21.1666767 0.24291992 22.69256592 C-0.3107083 25.0885568 -0.85495715 27.48650095 -1.39648438 29.88525391 C-2.13199172 33.14232599 -2.87005028 36.39879941 -3.61035156 39.65478516 C-5.16679881 46.51269515 -6.6844541 53.3784755 -8.1796875 60.25 C-8.43443848 61.39428467 -8.68918945 62.53856934 -8.95166016 63.7175293 C-9.18159668 64.7775415 -9.4115332 65.83755371 -9.6484375 66.9296875 C-9.84888672 67.84218262 -10.04933594 68.75467773 -10.25585938 69.69482422 C-11.16479676 75.19115731 -11.16479676 75.19115731 -9.5546875 80.3125 C-6.78716478 81.88076287 -4.71111405 80.97060549 -1.6796875 80.375 C2.87769589 64.25866655 6.3273924 47.89886009 9.3828125 31.4375 C10.58482787 25.00904211 11.86040773 18.6110329 13.3828125 12.25 C13.68316406 10.98929687 13.98351562 9.72859375 14.29296875 8.4296875 C15.27955435 5.49618963 15.79683107 4.10873663 18.3203125 2.375 C21.8203125 1.9375 21.8203125 1.9375 25.3203125 2.375 C27.3911551 4.45248817 28.27546024 5.66573047 28.4622345 8.61927795 C28.29687447 9.81332497 28.29687447 9.81332497 28.12817383 11.03149414 C27.94939194 12.35299973 27.94939194 12.35299973 27.76699829 13.70120239 C27.0846326 17.78574634 26.29147431 21.82840885 25.39453125 25.87109375 C25.11123711 27.18062767 25.11123711 27.18062767 24.82221985 28.51661682 C24.2226174 31.28307269 23.61547771 34.04780523 23.0078125 36.8125 C22.61210537 38.62944307 22.21691968 40.44649978 21.82226562 42.26367188 C21.53018723 43.60747421 21.53018723 43.60747421 21.23220825 44.97842407 C20.84126474 46.77799857 20.45053707 48.57761998 20.06002808 50.37728882 C19.09461494 54.8241829 18.12216552 59.26925047 17.13525391 63.71142578 C16.76566415 65.40260671 16.3963488 67.09384764 16.02734375 68.78515625 C15.85466476 69.54944443 15.68198578 70.3137326 15.5040741 71.10118103 C14.53509602 75.58645518 13.97384958 79.75707638 14.3203125 84.375 C16.27665225 86.78621859 16.27665225 86.78621859 19.9453125 86.5 C21.0590625 86.45875 22.1728125 86.4175 23.3203125 86.375 C23.51625 85.42109375 23.7121875 84.4671875 23.9140625 83.484375 C25.62275213 75.24251847 27.39145132 67.01537844 29.2265625 58.80078125 C29.39589294 58.04241974 29.56522339 57.28405823 29.73968506 56.50271606 C30.44310041 53.35481493 31.14719281 50.20707451 31.85510254 47.06018066 C34.36198246 35.93273681 34.36198246 35.93273681 36.5859375 24.74609375 C36.75867188 23.81595459 36.93140625 22.88581543 37.109375 21.92749023 C37.40503952 20.29021664 37.68749279 18.65047007 37.953125 17.00805664 C38.73983314 12.62446669 39.67386027 10.04997715 43.3203125 7.375 C46.3828125 6.9375 46.3828125 6.9375 49.3203125 7.375 C50.98220825 8.66055298 50.98220825 8.66055298 52.3203125 10.375 C53.00408299 17.99456903 51.37975479 25.05268213 49.765625 32.4765625 C49.50401581 33.71240082 49.24240662 34.94823914 48.97286987 36.2215271 C48.42053417 38.82284812 47.86496288 41.42318416 47.30322266 44.02246094 C46.58696857 47.3368936 45.88078803 50.65336414 45.17839241 53.97075844 C44.50252568 57.16091735 43.82169351 60.35001066 43.140625 63.5390625 C42.76238083 65.3127269 42.76238083 65.3127269 42.37649536 67.1222229 C40.40321697 76.25810209 40.40321697 76.25810209 39.12451172 80.43505859 C38.13207905 84.06313213 38.5183652 86.72978499 39.3203125 90.375 C40.43198114 91.70687793 40.43198114 91.70687793 43.2578125 91.5625 C46.42924109 91.70778733 46.42924109 91.70778733 48.3203125 89.375 C48.87925394 87.51627168 49.34571712 85.62935887 49.765625 83.734375 C50.03415283 82.53603027 50.30268066 81.33768555 50.5793457 80.10302734 C50.86818946 78.7770592 51.15683962 77.45104888 51.4453125 76.125 C51.74847831 74.75852333 52.0521174 73.39215159 52.35620117 72.02587891 C54.12376619 64.04223103 55.81740653 56.04344046 57.48828125 48.0390625 C57.66770264 47.18070801 57.84712402 46.32235352 58.03198242 45.43798828 C58.91418273 41.2125241 59.78989175 36.98587729 60.65478516 32.75683594 C60.97681132 31.19985393 61.29891063 29.64288704 61.62109375 28.0859375 C61.76355026 27.37885651 61.90600677 26.67177551 62.05278015 25.94326782 C62.82086385 22.25317358 63.65520963 18.76904865 65.3203125 15.375 C67.3203125 14.4375 67.3203125 14.4375 69.3203125 14.375 C74.42165255 19.47634005 72.56743756 29.0731935 72.57348633 35.75708008 C72.47892759 46.80986179 71.23967461 57.5030423 69.3203125 68.375 C69.19221191 69.10315918 69.06411133 69.83131836 68.93212891 70.58154297 C68.15871078 74.8692113 67.26535428 79.12231201 66.3203125 83.375 C66.11921875 84.38304687 65.918125 85.39109375 65.7109375 86.4296875 C61.86287412 104.12139353 51.78066235 123.23843073 36.8203125 133.8125 C30.71863943 137.57147137 24.57153679 139.93278648 17.3203125 139.375 C17.28164063 140.20064453 17.28164063 140.20064453 17.2421875 141.04296875 C16.73871317 148.42344467 15.39298518 155.55162458 13.97143555 162.79589844 C12.86052098 168.48322826 11.81360768 174.17428851 10.86816406 179.89160156 C10.542557 181.85114024 10.20582104 183.80885976 9.85839844 185.76464844 C8.96274502 190.91259378 8.23088196 196.01210555 7.79707336 201.22181702 C5.99881462 222.41741456 5.99881462 222.41741456 1.44580078 227.44482422 C-3.06697296 230.60485996 -8.01647281 232.12956743 -13.27978516 233.59619141 C-17.00932424 234.80648944 -20.11575459 236.7843989 -23.3671875 238.9375 C-24.40230469 239.59878906 -25.43742188 240.26007813 -26.50390625 240.94140625 C-27.22191406 241.41449219 -27.93992187 241.88757813 -28.6796875 242.375 C-29.95189758 238.55836977 -29.17422921 237.00606598 -27.9921875 233.1875 C-27.60720903 231.90429366 -27.22447162 230.62041326 -26.84375 229.3359375 C-26.6468457 228.67432617 -26.44994141 228.01271484 -26.24707031 227.33105469 C-23.87636698 219.15804476 -22.02231605 210.81837352 -20.046875 202.54296875 C-14.63162042 179.89073892 -14.63162042 179.89073892 -11.53466797 169.09423828 C-9.63592255 162.39750319 -7.99396416 155.64231436 -6.3671875 148.875 C-6.100271 147.76866211 -5.83335449 146.66232422 -5.55834961 145.52246094 C-4.21879477 140.5022599 -4.21879477 140.5022599 -3.6796875 135.375 C-5.43707859 134.10075169 -5.43707859 134.10075169 -7.6796875 132.8125 C-19.08805359 125.34422895 -25.03221103 114.51484516 -28.0546875 101.3125 C-32.72576528 67.98241374 -22.69248942 30.55264947 -4.671875 2.4375 C-2.6796875 0.375 -2.6796875 0.375 0 0 Z " fill="#F69420" transform="translate(689.6796875,282.625)"/>
<path d="M0 0 C20 0 20 0 26 3 C29.76556494 8.13990426 29.42285355 13.46361061 29.38476562 19.57592773 C29.3901384 20.62869904 29.39551117 21.68147034 29.40104675 22.7661438 C29.41081161 25.04633692 29.41377282 27.32656715 29.41069031 29.6067791 C29.40620767 33.2176928 29.42022583 36.82811765 29.43908691 40.4389801 C29.47584901 48.10514547 29.4895761 55.77125946 29.5 63.4375 C29.51208235 72.31899905 29.53363457 81.20025971 29.58000183 90.08165169 C29.59356534 93.63521323 29.5894023 97.18847292 29.58459473 100.74205017 C29.59393673 102.92626326 29.60410591 105.11047302 29.61523438 107.29467773 C29.60908615 108.27931503 29.60293793 109.26395233 29.59660339 110.27842712 C29.64765703 115.99267315 30.39660603 119.90478535 33 125 C34.08718364 128.29106723 34.26171276 129.40422384 32.85546875 132.60546875 C32.30503906 133.45753906 31.75460937 134.30960938 31.1875 135.1875 C30.64480469 136.04730469 30.10210938 136.90710938 29.54296875 137.79296875 C28 140 28 140 26 142 C19.42497638 142.95885761 14.53712086 140.43649984 9 137 C7.203125 135.45703125 7.203125 135.45703125 6 134 C6 133.34 6 132.68 6 132 C5.13375 132.5775 4.2675 133.155 3.375 133.75 C2.54548828 134.29720703 2.54548828 134.29720703 1.69921875 134.85546875 C0.1688635 135.88625976 -1.3245752 136.97135515 -2.8125 138.0625 C-11.68458508 143.45533603 -20.84331705 144.06267105 -31 143 C-40.35574746 140.37553058 -46.09458015 133.71950983 -50.75 125.5 C-58.2397899 109.18560616 -58.55589103 87.18222437 -53.2734375 70.2109375 C-51.3693419 65.40981302 -48.98494368 61.20345494 -46 57 C-45.1028125 55.63875 -45.1028125 55.63875 -44.1875 54.25 C-40.86896997 50.83665483 -37.06940771 48.43744214 -33 46 C-31.453125 45.071875 -31.453125 45.071875 -29.875 44.125 C-20.2969405 40.38287443 -9.31863595 43.45855383 0 46 C0 30.82 0 15.64 0 0 Z " fill="#80BA42" transform="translate(933,798)"/>
<path d="M0 0 C11.21108768 9.58212622 17.49328679 21.46282983 18.73095703 36.26464844 C19.63998427 52.64235262 16.69339846 68.28029648 6.75 81.6953125 C0.34108479 88.71841542 -8.9770868 93.76054943 -18.52514648 94.38696289 C-33.64588578 95.02826149 -45.66780251 93.69183419 -57.4375 83.25 C-69.21610642 70.41522224 -71.25498058 53.38758394 -70.61669922 36.73193359 C-69.86518316 26.32333375 -66.66972867 16.67908927 -60.4375 8.25 C-59.82261719 7.41082031 -59.20773437 6.57164062 -58.57421875 5.70703125 C-44.89795886 -10.01941751 -16.78331933 -11.74511449 0 0 Z " fill="#53463D" transform="translate(580.4375,846.75)"/>
<path d="M0 0 C9.60714446 7.32883325 14.82292046 17.15650021 17.35546875 28.796875 C17.76610547 33.26397874 17.7757029 37.68866833 17.73046875 42.171875 C17.74207031 43.31398438 17.75367188 44.45609375 17.765625 45.6328125 C17.71898417 59.31412338 14.61451706 72.27933656 5.16796875 82.609375 C-5.36783349 92.32754292 -17.3091343 94.31626063 -31.0390625 94.0390625 C-41.7487393 93.60404245 -51.07477288 89.35614419 -58.71875 81.7265625 C-67.97757397 70.5195695 -71.04675676 57.67767527 -70.95703125 43.421875 C-70.9528418 42.5050293 -70.94865234 41.58818359 -70.94433594 40.64355469 C-70.82868244 33.68712011 -70.031817 27.37220085 -67.64453125 20.796875 C-67.226875 19.60771484 -67.226875 19.60771484 -66.80078125 18.39453125 C-62.17559436 6.73188328 -54.03740379 -0.59831349 -42.70703125 -5.578125 C-28.76206679 -10.26567283 -12.2374791 -7.86000247 0 0 Z " fill="#81BA43" transform="translate(747.64453125,847.203125)"/>
<path d="M0 0 C9.68290471 8.2260273 14.78136731 19.3103177 16.125 31.8125 C16.28252875 35.27210093 16.31002656 38.72467804 16.3125 42.1875 C16.32474609 43.08210937 16.33699219 43.97671875 16.34960938 44.8984375 C16.37968093 58.69125746 12.09987875 72.38727515 2.46484375 82.56640625 C-8.0199351 92.09585217 -20.54760466 93.50294304 -34.1953125 93.19140625 C-44.59434781 92.60763747 -53.80404899 87.32078148 -60.77734375 79.74609375 C-70.14116512 68.36301281 -72.01906786 56.64163802 -72.125 42.25 C-72.1343457 41.37569336 -72.14369141 40.50138672 -72.15332031 39.60058594 C-72.08559675 25.70683603 -68.5388853 13.08777397 -58.875 2.8125 C-42.7835764 -11.93249836 -17.53811414 -12.43879692 0 0 Z " fill="#81BA42" transform="translate(848.875,848.1875)"/>
<path d="M0 0 C8.87870588 7.45811294 14.66054588 16.63808746 15.76904297 28.37426758 C15.86490641 30.62805192 15.88468109 32.86930644 15.875 35.125 C15.89111328 35.87201172 15.90722656 36.61902344 15.92382812 37.38867188 C15.92917093 43.58097812 14.66510051 46.87969848 12.5625 53.1875 C-3.6075 53.1875 -19.7775 53.1875 -36.4375 53.1875 C-34.79896378 61.66806434 -34.79896378 61.66806434 -30.4375 68.1875 C-22.35701805 72.24167284 -13.255968 70.65290457 -4.9375 68.125 C-3.8134375 67.74214844 -2.689375 67.35929688 -1.53125 66.96484375 C1.73238502 66.14481424 3.42280139 66.02364621 6.5625 67.1875 C11.30997586 71.88702155 12.39847667 77.74585666 12.5625 84.1875 C10.3566576 85.31761652 8.14804973 86.44165788 5.9375 87.5625 C5.32003906 87.87960937 4.70257813 88.19671875 4.06640625 88.5234375 C-9.40586478 95.3304797 -26.95029782 96.65239141 -41.5625 92.625 C-51.86315987 88.86859672 -57.55650791 82.83926822 -62.4375 73.1875 C-63.30375 71.5478125 -63.30375 71.5478125 -64.1875 69.875 C-70.18193403 52.1914196 -69.45137841 30.83016927 -61.75 13.9375 C-56.38222809 3.88441128 -49.04463217 -1.7252184 -38.4375 -5.8125 C-25.55895683 -8.63236793 -11.01577315 -7.7819761 0 0 Z " fill="#53453D" transform="translate(393.4375,846.8125)"/>
<path d="M0 0 C0.48255673 7.56005541 -1.19997606 14.04366777 -6 20 C-6.70125 19.855625 -7.4025 19.71125 -8.125 19.5625 C-19.75928773 17.15006746 -19.75928773 17.15006746 -31 20 C-32.99488268 24.52892284 -33.21759602 28.46741074 -33.125 33.375 C-33.08375 35.56125 -33.0425 37.7475 -33 40 C-24.75 40.33 -16.5 40.66 -8 41 C-6.42847281 44.14305438 -6.85681411 47.491274 -6.875 50.9375 C-6.87113281 51.66646484 -6.86726562 52.39542969 -6.86328125 53.14648438 C-6.8691696 56.35857736 -6.97738147 58.9321444 -8 62 C-15.59 62 -23.18 62 -31 62 C-31 86.42 -31 110.84 -31 136 C-39.65126837 140.32563419 -50.32758791 137 -60 137 C-60 112.25 -60 87.5 -60 62 C-65.61 62 -71.22 62 -77 62 C-77.99703735 58.01185061 -78.14837026 54.44142528 -78.125 50.375 C-78.12886719 49.694375 -78.13273438 49.01375 -78.13671875 48.3125 C-78.12672061 43.25344122 -78.12672061 43.25344122 -77 41 C-72.05 41 -67.1 41 -62 41 C-62.495 39.515 -62.495 39.515 -63 38 C-63.96167617 25.37456577 -62.92371167 15.0188196 -54.9375 4.625 C-40.57373387 -9.95224036 -17.54546515 -7.14815247 0 0 Z " fill="#81BA42" transform="translate(681,802)"/>
<path d="M0 0 C7.17111623 4.28357858 11.82314829 10.80095123 14.41015625 18.71484375 C14.7109375 21.87109375 14.7109375 21.87109375 14.72265625 25.21484375 C14.73941406 26.31828125 14.75617188 27.42171875 14.7734375 28.55859375 C14.26911416 32.9402417 12.70699111 35.58011325 9.41015625 38.46484375 C5.19088615 41.10188756 1.08584964 40.86515496 -3.71484375 40.83984375 C-4.45605469 40.84371094 -5.19726562 40.84757813 -5.9609375 40.8515625 C-11.46318395 40.84150355 -11.46318395 40.84150355 -12.58984375 39.71484375 C-12.74943756 37.67558957 -12.86710749 35.63299705 -12.96484375 33.58984375 C-13.34005165 28.24899373 -13.91143013 24.35055964 -16.58984375 19.71484375 C-20.34031857 17.21452721 -22.14840641 17.17880821 -26.58984375 17.71484375 C-31.03601661 20.97537051 -32.68726028 24.41711975 -33.58984375 29.71484375 C-33.92574903 34.32138561 -33.96001133 38.90996431 -33.96484375 43.52734375 C-33.98933594 44.74744141 -34.01382812 45.96753906 -34.0390625 47.22460938 C-34.0628299 54.59646611 -33.62048321 61.33731928 -29.58984375 67.71484375 C-25.94946672 70.89755517 -22.61821406 72.06592172 -17.75 72.00390625 C-11.91303893 71.22283009 -6.31822496 68.62617202 -1.15234375 65.90234375 C1.41015625 64.71484375 1.41015625 64.71484375 3.375 64.90234375 C5.9979851 65.94952398 6.91143923 67.23628754 8.53515625 69.52734375 C9.03273438 70.21441406 9.5303125 70.90148437 10.04296875 71.609375 C13.41015625 76.79484375 13.41015625 76.79484375 13.41015625 80.15234375 C11.08363294 86.11405974 4.66590395 88.98091961 -0.83984375 91.578125 C-12.5666903 96.42544368 -28.4384536 98.46576321 -40.58984375 93.71484375 C-51.69211917 88.47401809 -57.25631215 81.2312546 -62.328125 70.25390625 C-65.16062972 62.30886206 -65.9142052 54.60529385 -65.83984375 46.21484375 C-65.84757812 45.34214844 -65.8553125 44.46945312 -65.86328125 43.5703125 C-65.82119255 29.36537616 -61.82675838 16.65878572 -52.58984375 5.71484375 C-38.24336382 -8.44572068 -17.24925929 -8.55958719 0 0 Z " fill="#53453D" transform="translate(486.58984375,845.28515625)"/>
<path d="M0 0 C3.2100126 1.50255909 4.46745722 2.74066225 5.84667969 6.00219727 C8.07194403 12.93655975 8.42186626 19.3137044 8.3125 26.5625 C8.31733398 28.1702832 8.31733398 28.1702832 8.32226562 29.81054688 C8.20880432 46.67502333 8.20880432 46.67502333 3 53 C-0.43131048 55.39393754 -3.00950989 56.25171805 -7.125 55.9375 C-11.3013598 54.92709037 -12.59146166 54.47899983 -15 51 C-20.71640988 39.38693309 -20.69040785 22.47221211 -17.69921875 10.01953125 C-14.6091057 1.09445612 -8.9493539 -1.08824143 0 0 Z " fill="#FCFDFB" transform="translate(826,863)"/>
<path d="M0 0 C4.10998018 0.81542007 5.68651072 2.31624514 8.44140625 5.484375 C10.56183398 10.4618001 10.90105782 15.21618215 11.12890625 20.546875 C11.16653076 21.38524902 11.20415527 22.22362305 11.24291992 23.08740234 C12.04794733 44.26144809 12.04794733 44.26144809 6.44140625 52.484375 C3.40819118 55.36592932 1.15240938 55.96056772 -2.99609375 56.046875 C-7.21422542 55.91751896 -8.23412099 55.74925072 -11.62109375 52.984375 C-16.52119258 45.36346067 -15.89383141 36.17925694 -15.87109375 27.484375 C-15.88720703 26.25203125 -15.90332031 25.0196875 -15.91992188 23.75 C-15.92437574 15.44799121 -15.28821374 9.45473135 -10.49609375 2.484375 C-6.81897994 -0.01919185 -4.38003457 -0.2349944 0 0 Z " fill="#FDFDFC" transform="translate(556.55859375,862.515625)"/>
<path d="M0 0 C3.55452415 2.07347242 5.62814694 4.11308301 7 8 C8.26344674 14.46502878 8.18397812 20.81020988 8.1875 27.375 C8.19974609 28.56867187 8.21199219 29.76234375 8.22460938 30.9921875 C8.25208783 47.55253443 8.25208783 47.55253443 2 54 C-1.98866985 55.99433492 -6.67334856 55.64399581 -11 55 C-15.71262025 51.15296306 -17.07384725 46.95326636 -18 41 C-18.28169751 36.30939205 -18.27937638 31.63527315 -18.25 26.9375 C-18.26160156 25.07641602 -18.26160156 25.07641602 -18.2734375 23.17773438 C-18.24016289 7.63017307 -18.24016289 7.63017307 -12 1 C-8.29778834 -0.85110583 -4.04093083 -0.46454795 0 0 Z " fill="#FDFEFD" transform="translate(726,863)"/>
<path d="M0 0 C2.34716797 1.13647461 2.34716797 1.13647461 4.7421875 2.52734375 C5.54253418 2.9874585 6.34288086 3.44757324 7.16748047 3.92163086 C7.77221191 4.27749268 8.37694336 4.63335449 9 5 C9.14851066 10.88978056 9.25729323 16.77846772 9.32958984 22.66967773 C9.35973149 24.67280057 9.40065315 26.67579175 9.45263672 28.6784668 C9.52556881 31.56071451 9.55948174 34.44121555 9.5859375 37.32421875 C9.61690521 38.21711105 9.64787292 39.11000336 9.67977905 40.029953 C9.68306127 46.11727142 9.68306127 46.11727142 7.71221924 48.66421509 C3.80174747 51.99987314 0.05195058 53.74350618 -5 54.375 C-8.92756679 53.88405415 -10.3138827 52.90391059 -13 50 C-16.39598046 43.01211712 -16.42133995 36.67974668 -16.3125 29 C-16.31572266 27.86304688 -16.31894531 26.72609375 -16.32226562 25.5546875 C-16.26515024 16.60314911 -15.72447956 9.28570126 -10 2 C-6.17414446 -0.55057036 -4.55736908 -0.51454167 0 0 Z " fill="#FCFDFA" transform="translate(924,863)"/>
<path d="M0 0 C1.54300781 -0.03867187 1.54300781 -0.03867187 3.1171875 -0.078125 C7.49172031 0.39909676 10.10744889 2.05700904 12.9375 5.375 C14.85160275 10.00914351 15.11533866 14.56338896 13.36328125 19.31640625 C12.03406495 21.83298573 10.5798029 23.87641191 8.375 25.6875 C4.88770753 26.55932312 1.71737919 26.42667439 -1.875 26.25 C-2.205 25.92 -2.535 25.59 -2.875 25.25 C-3.205 28.22 -3.535 31.19 -3.875 34.25 C-5.525 34.25 -7.175 34.25 -8.875 34.25 C-8.875 23.36 -8.875 12.47 -8.875 1.25 C-5.71490467 0.19663489 -3.3196864 0.04967112 0 0 Z " fill="#9D9D9D" transform="translate(570.875,973.75)"/>
<path d="M0 0 C1.73443359 0.00966797 1.73443359 0.00966797 3.50390625 0.01953125 C6.4375 0.1875 6.4375 0.1875 8.4375 1.1875 C8.55379782 5.58311039 8.62478634 9.97832429 8.6875 14.375 C8.73777344 16.24381836 8.73777344 16.24381836 8.7890625 18.15039062 C8.80195312 19.35244141 8.81484375 20.55449219 8.828125 21.79296875 C8.84907227 22.89793701 8.87001953 24.00290527 8.89160156 25.14135742 C8.3342209 28.88030284 7.0435942 30.50416801 4.4375 33.1875 C1.70672124 34.55288938 -0.51810367 34.31981826 -3.5625 34.3125 C-5.17125 34.31636719 -5.17125 34.31636719 -6.8125 34.3203125 C-9.5625 34.1875 -9.5625 34.1875 -11.5625 33.1875 C-11.5625 31.8675 -11.5625 30.5475 -11.5625 29.1875 C-10.29792969 29.20490234 -10.29792969 29.20490234 -9.0078125 29.22265625 C-7.91210938 29.23167969 -6.81640625 29.24070312 -5.6875 29.25 C-4.59695313 29.26160156 -3.50640625 29.27320313 -2.3828125 29.28515625 C0.38927546 29.38494303 0.38927546 29.38494303 2.4375 28.1875 C3.08963292 26.16286745 3.08963292 26.16286745 3.4375 24.1875 C2.70144531 24.25710938 1.96539063 24.32671875 1.20703125 24.3984375 C-6.63899765 24.83375218 -6.63899765 24.83375218 -9.37109375 22.921875 C-12.7523641 18.78809642 -13.90951413 15.6012948 -13.8515625 10.2890625 C-13.38372304 6.88774318 -11.71983871 4.77630645 -9.5625 2.1875 C-5.96639031 -0.20990646 -4.26157673 -0.05237692 0 0 Z " fill="#9A9A9A" transform="translate(756.5625,973.8125)"/>
<path d="M0 0 C3.15460202 1.77446363 4.50737276 3.15549616 6.3125 6.25 C7.6685042 11.67401681 7.84039591 15.40925059 5.25 20.3125 C1.80605388 24.42610231 0.55740528 25.85167569 -4.9375 26.375 C-8.69630386 26.21430764 -11.04528979 25.44818846 -14 23 C-17.41020744 19.11941912 -17.45106469 15.32688812 -17.2890625 10.37109375 C-16.7933248 6.3047048 -15.19820053 4.06564472 -12.19921875 1.3984375 C-8.37796985 -1.03141527 -4.37065031 -0.63753408 0 0 Z " fill="#9B9B9B" transform="translate(732,974)"/>
<path d="M0 0 C2.8335221 1.92103193 4.51905441 3.91379587 6 7 C7.01915672 12.41720996 6.68299866 16.60960988 4.25 21.5625 C0.79526516 25.30512941 -0.77331537 25.86150335 -5.875 26.4375 C-9.12458092 26.3646122 -10.89939678 25.71798257 -13.4375 23.6875 C-17.58163685 19.34121013 -17.28655523 15.39588622 -17.2109375 9.6640625 C-16.9433255 6.28422202 -16.33018209 4.48552756 -14 2 C-9.39082422 -1.21570403 -5.24129553 -1.99668401 0 0 Z " fill="#9B9B9B" transform="translate(509,974)"/>
<path d="M0 0 C3.5917661 0.58881411 6.84293782 0.67632976 10.46875 0.484375 C18.13508065 0.18951613 18.13508065 0.18951613 21.4375 2.3125 C24.32270061 7.16488285 23.93884184 12.44219057 23.875 17.9375 C23.87048828 18.67806641 23.86597656 19.41863281 23.86132812 20.18164062 C23.84962175 21.99612899 23.83168898 23.81057534 23.8125 25.625 C22.1625 25.625 20.5125 25.625 18.8125 25.625 C18.75191406 24.34882812 18.69132813 23.07265625 18.62890625 21.7578125 C18.54450432 20.08852984 18.45985614 18.41925963 18.375 16.75 C18.33568359 15.90824219 18.29636719 15.06648437 18.25585938 14.19921875 C18.21396484 13.39355469 18.17207031 12.58789062 18.12890625 11.7578125 C18.09224854 11.01418457 18.05559082 10.27055664 18.01782227 9.50439453 C17.91294135 7.53635688 17.91294135 7.53635688 16.8125 5.625 C14.1725 5.625 11.5325 5.625 8.8125 5.625 C8.8125 12.225 8.8125 18.825 8.8125 25.625 C7.1625 25.625 5.5125 25.625 3.8125 25.625 C3.75191406 24.34882812 3.69132813 23.07265625 3.62890625 21.7578125 C3.54450432 20.08852984 3.45985614 18.41925963 3.375 16.75 C3.33568359 15.90824219 3.29636719 15.06648437 3.25585938 14.19921875 C3.19301758 12.99072266 3.19301758 12.99072266 3.12890625 11.7578125 C3.09224854 11.01418457 3.05559082 10.27055664 3.01782227 9.50439453 C2.91294135 7.53635688 2.91294135 7.53635688 1.8125 5.625 C-0.8275 5.295 -3.4675 4.965 -6.1875 4.625 C-6.1875 11.555 -6.1875 18.485 -6.1875 25.625 C-7.8375 25.625 -9.4875 25.625 -11.1875 25.625 C-11.1875 17.705 -11.1875 9.785 -11.1875 1.625 C-3.334375 -0.61875 -3.334375 -0.61875 0 0 Z " fill="#9B9B9B" transform="translate(532.1875,973.375)"/>
<path d="M0 0 C1.89382164 -0.13592021 3.79049704 -0.2324094 5.6875 -0.3125 C6.74324219 -0.37050781 7.79898438 -0.42851563 8.88671875 -0.48828125 C12 0 12 0 14.875 1.875 C17.91938148 6.35203159 17.55494799 10.03459376 17.3125 15.3125 C17.28994141 16.24384766 17.26738281 17.17519531 17.24414062 18.13476562 C17.18542078 20.4248396 17.10336858 22.71157875 17 25 C11.27487076 26.50816391 5.42760113 27.08994336 -0.0625 24.625 C-2.60094738 22.49597961 -2.93594691 21.4803982 -3.375 18.1875 C-3 15 -3 15 -1.125 12.125 C3.24119046 9.15599049 6.87316446 9.55202408 12 10 C11.34 8.35 10.68 6.7 10 5 C6.7 4.67 3.4 4.34 0 4 C0 2.68 0 1.36 0 0 Z " fill="#9C9C9C" transform="translate(592,974)"/>
<path d="M0 0 C1.91541138 -0.10841951 3.83259773 -0.18578079 5.75 -0.25 C7.35101562 -0.31960938 7.35101562 -0.31960938 8.984375 -0.390625 C12 0 12 0 14.375 1.34375 C16.9791612 5.60055197 16.41887175 9.87220431 16.25 14.75 C16.23195313 15.73355469 16.21390625 16.71710937 16.1953125 17.73046875 C16.14824126 20.15463783 16.08250742 22.57682059 16 25 C10.35527655 26.88157448 4.22345049 27.04632964 -1.1875 24.5 C-3.38292682 21.47182508 -3.74385558 19.59266471 -3.46875 15.90625 C-3 14 -3 14 -1.125 11.5 C3.27465692 9.38816468 7.20350768 9.66471122 12 10 C11.34 8.35 10.68 6.7 10 5 C6.7 4.67 3.4 4.34 0 4 C0 2.68 0 1.36 0 0 Z " fill="#999999" transform="translate(774,974)"/>
<path d="M0 0 C4.86987836 2.43493918 7.21711438 4.84944153 9 10 C9 12.64 9 15.28 9 18 C1.08 18 -6.84 18 -15 18 C-15 10.8635374 -14.60592745 6.82308807 -9.75 1.5625 C-6.15438638 -0.48046228 -4.08445834 -0.57325731 0 0 Z " fill="#FBFBFA" transform="translate(372,861)"/>
<path d="M0 0 C1.43472656 -0.02126953 1.43472656 -0.02126953 2.8984375 -0.04296875 C5.65510017 0.19004428 7.27447395 0.77829836 9.625 2.1875 C8.965 3.5075 8.305 4.8275 7.625 6.1875 C7.109375 6.0225 6.59375 5.8575 6.0625 5.6875 C2.84817332 5.02815094 -0.10346085 5.00574783 -3.375 5.1875 C-4.035 5.8475 -4.695 6.5075 -5.375 7.1875 C-5.51154115 9.69859908 -5.51154115 9.69859908 -4.375 12.1875 C-1.73605173 13.99633072 -1.73605173 13.99633072 1.5 15.3125 C8.64937058 18.49956881 8.64937058 18.49956881 10.625 21.1875 C11.02416548 24.28103244 11.25972337 26.22738099 10.625 29.1875 C8.44925584 31.87855198 6.71434144 33.64282928 3.625 35.1875 C1.83640489 35.30957871 0.04271619 35.36298448 -1.75 35.375 C-2.70648437 35.38917969 -3.66296875 35.40335938 -4.6484375 35.41796875 C-7.40510017 35.18495572 -9.02447395 34.59670164 -11.375 33.1875 C-11.375 31.8675 -11.375 30.5475 -11.375 29.1875 C-10.47136719 29.28289063 -9.56773437 29.37828125 -8.63671875 29.4765625 C-7.45722656 29.58742188 -6.27773438 29.69828125 -5.0625 29.8125 C-3.30486328 29.98652344 -3.30486328 29.98652344 -1.51171875 30.1640625 C1.79091167 30.48198782 1.79091167 30.48198782 4.625 28.1875 C5.00484044 25.33760169 5.00484044 25.33760169 3.625 22.1875 C0.95509529 20.64615699 -1.72968807 19.54661611 -4.61328125 18.4609375 C-7.60979242 17.07923645 -9.30296782 15.74252337 -11.375 13.1875 C-11.99484499 8.92606568 -11.86811964 6.94361678 -9.5 3.3125 C-6.29153033 0.10403033 -4.43474367 0.02972348 0 0 Z " fill="#9A9A9A" transform="translate(687.375,964.8125)"/>
<path d="M0 0 C0.99 0.66 1.98 1.32 3 2 C3 3.32 3 4.64 3 6 C2.319375 5.835 1.63875 5.67 0.9375 5.5 C-3.63200903 4.72221123 -7.44933179 4.37973272 -11.8125 6.125 C-15.18853038 9.01874032 -15.78962084 11.86991097 -16.21875 16.21484375 C-16.40760638 20.94412225 -16.18440607 24.24694999 -13 28 C-9.57207015 30.57094739 -6.15822774 30.21885409 -2 30 C-0.32442621 29.71479595 1.34817245 29.40044304 3 29 C2.625 31.4375 2.625 31.4375 2 34 C-2.2150656 36.1075328 -7.42250022 35.51511506 -12 35 C-16.03042839 33.37097668 -18.31070021 30.88941908 -20.9375 27.5 C-22.89703169 21.04507209 -23.55276572 13.14117569 -20.4375 6.9375 C-14.69745219 0.02000649 -8.71868475 -1.19396001 0 0 Z " fill="#999999" transform="translate(485,965)"/>
<path d="M0 0 C1.65 0 3.3 0 5 0 C6.98 5.61 8.96 11.22 11 17 C13.24808254 13.62787619 14.05160443 10.7125039 15.125 6.8125 C15.30675781 6.15830078 15.48851562 5.50410156 15.67578125 4.83007812 C16.12199044 3.22137657 16.56164215 1.61085869 17 0 C18.65 0 20.3 0 22 0 C17.10799013 23.06623648 17.10799013 23.06623648 10.75 32.25 C6.85143979 34.73090195 3.49761041 34.4409422 -1 34 C-1 32.68 -1 31.36 -1 30 C1.97 29.67 4.94 29.34 8 29 C8.24269117 24.5200522 7.69524762 21.68522757 5.6875 17.6875 C0 5.84392756 0 5.84392756 0 0 Z " fill="#9A9A9A" transform="translate(640,974)"/>
<path d="M0 0 C1.01610352 -0.04350586 1.01610352 -0.04350586 2.05273438 -0.08789062 C5.53087119 -0.13208982 7.33157661 0.03362626 10.10546875 2.20703125 C12.4026105 5.26421496 12.81024924 6.90011331 12.78515625 10.6640625 C12.78193359 11.51484375 12.77871094 12.365625 12.77539062 13.2421875 C12.76701172 14.13164063 12.75863281 15.02109375 12.75 15.9375 C12.74548828 16.8346875 12.74097656 17.731875 12.73632812 18.65625 C12.72452591 20.87506648 12.70806155 23.09375018 12.6875 25.3125 C11.0375 25.3125 9.3875 25.3125 7.6875 25.3125 C7.66244385 24.74217041 7.6373877 24.17184082 7.61157227 23.58422852 C7.49593451 21.01423843 7.37306376 18.44464473 7.25 15.875 C7.21068359 14.97716797 7.17136719 14.07933594 7.13085938 13.15429688 C7.08896484 12.30029297 7.04707031 11.44628906 7.00390625 10.56640625 C6.96724854 9.77564697 6.93059082 8.9848877 6.89282227 8.17016602 C6.88186743 6.29848559 6.88186743 6.29848559 5.6875 5.3125 C2.7175 4.9825 -0.2525 4.6525 -3.3125 4.3125 C-3.3125 11.2425 -3.3125 18.1725 -3.3125 25.3125 C-4.9625 25.3125 -6.6125 25.3125 -8.3125 25.3125 C-8.34136984 21.33334841 -8.35925406 17.35422347 -8.375 13.375 C-8.38337891 12.23869141 -8.39175781 11.10238281 -8.40039062 9.93164062 C-8.40361328 8.85205078 -8.40683594 7.77246094 -8.41015625 6.66015625 C-8.41539307 5.65992432 -8.42062988 4.65969238 -8.42602539 3.62915039 C-8.18533378 -1.28251135 -3.92095809 0.05501812 0 0 Z " fill="#9C9C9C" transform="translate(805.3125,973.6875)"/>
<path d="M0 0 C1.69576172 -0.07347656 1.69576172 -0.07347656 3.42578125 -0.1484375 C6.6875 0.375 6.6875 0.375 9.5859375 2.25390625 C12.60012617 6.7303686 12.24176175 10.42453273 12 15.6875 C11.97744141 16.61884766 11.95488281 17.55019531 11.93164062 18.50976562 C11.87292078 20.7998396 11.79086858 23.08657875 11.6875 25.375 C10.3675 25.375 9.0475 25.375 7.6875 25.375 C7.63851562 24.18261719 7.58953125 22.99023438 7.5390625 21.76171875 C7.46402396 20.19528932 7.3884766 18.62888421 7.3125 17.0625 C7.2815625 16.27681641 7.250625 15.49113281 7.21875 14.68164062 C7.18007813 13.92431641 7.14140625 13.16699219 7.1015625 12.38671875 C7.0701416 11.69022217 7.0387207 10.99372559 7.00634766 10.27612305 C6.76631747 8.04967261 6.76631747 8.04967261 4.6875 5.375 C2.0475 5.045 -0.5925 4.715 -3.3125 4.375 C-3.3125 11.305 -3.3125 18.235 -3.3125 25.375 C-4.9625 25.375 -6.6125 25.375 -8.3125 25.375 C-8.3125 17.455 -8.3125 9.535 -8.3125 1.375 C-5.51877174 -0.02186413 -3.11570908 0.09174228 0 0 Z " fill="#989898" transform="translate(624.3125,973.625)"/>
<path d="M0 0 C3.5625 0.5625 3.5625 0.5625 6 2.625 C7.94951789 6.29009364 8.07551543 8.45837659 7.5625 12.5625 C6.5 15.4375 6.5 15.4375 4.5625 17.5625 C1.0625 18.5625 1.0625 18.5625 -2.4375 18.5625 C-5.0854735 16.79718433 -5.4144986 15.63150421 -6.4375 12.5625 C-6.87941714 5.60230504 -6.87941714 5.60230504 -5.375 2.0625 C-3.4375 0.5625 -3.4375 0.5625 0 0 Z " fill="#FAFAFA" transform="translate(726.4375,977.4375)"/>
<path d="M0 0 C1.258125 -0.04125 2.51625 -0.0825 3.8125 -0.125 C4.52019531 -0.14820313 5.22789062 -0.17140625 5.95703125 -0.1953125 C8 0 8 0 11 2 C13.21849498 5.32774246 13.75578532 7.13719292 13.48046875 11.05859375 C12.60630913 14.59076718 10.97140914 16.0401344 8 18 C1.79310345 17.79310345 1.79310345 17.79310345 0 16 C-0.07319621 13.30345146 -0.09242537 10.63308542 -0.0625 7.9375 C-0.05798828 7.17888672 -0.05347656 6.42027344 -0.04882812 5.63867188 C-0.0370068 3.75908129 -0.01907078 1.87953101 0 0 Z " fill="#F9F9F9" transform="translate(567,978)"/>
<path d="M0 0 C2.40456579 1.78403269 2.87621122 3.17061521 3.3125 6.09375 C3.52756505 10.12621976 3.28935892 12.47486714 1.3125 16.0625 C-1 18 -1 18 -3.5 18.5625 C-6 18 -6 18 -8.3125 16.6875 C-10.95458488 12.47973519 -10.82011274 7.83940399 -10 3 C-7.26102898 -0.79367926 -4.48333842 -0.5604173 0 0 Z " fill="#FBFBFB" transform="translate(507,978)"/>
<path d="M0 0 C1.65 0 3.3 0 5 0 C5 10.89 5 21.78 5 33 C5.99 33.33 6.98 33.66 8 34 C8 35.32 8 36.64 8 38 C5.125 37.6875 5.125 37.6875 2 37 C-0.46105545 33.30841682 -0.25575793 30.53376446 -0.1953125 26.26953125 C-0.1924826 25.51911057 -0.18965271 24.76868988 -0.18673706 23.99552917 C-0.17555062 21.60102325 -0.15044928 19.20689269 -0.125 16.8125 C-0.11496819 15.18815645 -0.10584269 13.56380703 -0.09765625 11.93945312 C-0.07561637 7.959491 -0.0410974 3.97980912 0 0 Z " fill="#9B9B9B" transform="translate(703,962)"/>
<path d="M0 0 C0.02685095 2.47923801 0.04676547 4.9581884 0.0625 7.4375 C0.07087891 8.14455078 0.07925781 8.85160156 0.08789062 9.58007812 C0.09653588 11.38693559 0.05220011 13.19387603 0 15 C-1 16 -1 16 -4.3125 16.3125 C-8 16 -8 16 -10.4375 14.4375 C-12.61348954 11.04295632 -12.55627159 8.9634351 -12 5 C-9.02108075 -0.83371686 -5.96431213 -0.49702601 0 0 Z " fill="#FCFCFC" transform="translate(760,978)"/>
<path d="M0 0 C1.23556641 0.01740234 1.23556641 0.01740234 2.49609375 0.03515625 C3.32238281 0.04417969 4.14867187 0.05320312 5 0.0625 C5.63808594 0.07410156 6.27617188 0.08570313 6.93359375 0.09765625 C6.93359375 2.73765625 6.93359375 5.37765625 6.93359375 8.09765625 C-0.46595136 8.4615683 -0.46595136 8.4615683 -3.12890625 6.84765625 C-4.06640625 5.09765625 -4.06640625 5.09765625 -3.81640625 2.97265625 C-2.67796694 0.12655798 -2.67796694 0.12655798 0 0 Z " fill="#F5F5F5" transform="translate(779.06640625,987.90234375)"/>
<path d="M0 0 C2.05078125 0.03255208 4.1015625 0.06510417 6.15234375 0.09765625 C6.15234375 2.73765625 6.15234375 5.37765625 6.15234375 8.09765625 C0.09765625 8.29296875 0.09765625 8.29296875 -1.84765625 8.09765625 C-2.50765625 7.43765625 -3.16765625 6.77765625 -3.84765625 6.09765625 C-3.12417691 0.16512563 -3.12417691 0.16512563 0 0 Z " fill="#F9F9F9" transform="translate(597.84765625,987.90234375)"/>
</svg>
